#!OML:ASF I:\Actors\actors\Patient Classification 1\Patient 1\Session 1\Subject1.ASF
:FULLY-SPECIFIED
:DEGREES
306
root -0.037373 17.7732 8.31569 25.4464 6.6342 -8.66041
lowerback 10.6285 -1.6001 6.11926
upperback 1.01473 -1.0114 7.30361
thorax -4.89041 -0.552435 4.4071
lowerneck -10.6251 -3.70641 -0.0132969
upperneck -0.685136 -5.132 6.17148
head 1.78672 -2.41062 1.72533
rclavicle -2.66371e-014 3.18055e-015
rhumerus 0.311997 -13.687 -33.088
rradius 22.1089
rwrist 18.991
rhand 24.8099 -26.8577
rfingers 7.12502
rthumb 48.9865 -48.5968
lclavicle -2.66371e-014 3.18055e-015
lhumerus 45.2983 -65.7727 59.7094
lradius 56.8573
lwrist 19.133
lhand -22.6132 -15.6105
lfingers 7.12502
lthumb 3.81663 14.335
rfemur -23.8029 25.4726 17.116
rtibia 2.41789
rfoot -12.1509 -35.5868
rtoes 8.65069
lfemur -32.4998 -57.8801 23.2557
ltibia -3.67427
lfoot -46.1403 61.6082
ltoes 26.1891
307
root -0.0489358 17.7731 8.3219 25.4987 6.53072 -8.57166
lowerback 10.6407 -1.47566 6.26178
upperback 0.970382 -0.820106 7.36619
thorax -4.95167 -0.461045 4.36801
lowerneck -10.8201 -3.75895 0.00593384
upperneck -0.871645 -5.18638 5.79202
head 1.7463 -2.4491 1.59371
rclavicle 1.19271e-015 -4.45278e-014
rhumerus 0.186006 -16.0045 -34.1117
rradius 21.4258
rwrist 21.8671
rhand 26.1928 -26.956
rfingers 7.12502
rthumb 50.254 -48.0443
lclavicle 1.19271e-015 -4.45278e-014
lhumerus 43.5638 -66.4659 61.6452
lradius 55.8455
lwrist 19.2023
lhand -22.9618 -15.209
lfingers 7.12502
lthumb 3.48 14.7423
rfemur -23.8459 25.3747 17.0844
rtibia 2.44872
rfoot -12.0123 -35.494
rtoes 8.38912
lfemur -32.4225 -57.6687 23.0586
ltibia -3.63693
lfoot -45.7179 61.581
ltoes 25.8819
308
root -0.0625318 17.7744 8.32764 25.4987 6.44977 -8.55091
lowerback 10.7334 -1.49196 6.18171
upperback 0.828759 -0.82364 7.42689
thorax -5.15212 -0.462811 4.48809
lowerneck -10.5984 -3.71554 -0.0523092
upperneck -0.932794 -5.11578 5.84332
head 1.68854 -2.4173 1.62754
rclavicle -1.11319e-014 2.3059e-014
rhumerus 0.129206 -16.8064 -35.6558
rradius 20.9315
rwrist 23.2575
rhand 26.4815 -27.2304
rfingers 7.12502
rthumb 50.5178 -48.177
lclavicle -1.11319e-014 2.3059e-014
lhumerus 40.4913 -66.9989 64.3566
lradius 54.6218
lwrist 18.8926
lhand -23.0017 -14.774
lfingers 7.12502
lthumb 3.44144 15.178
rfemur -23.8677 25.3316 17.1317
rtibia 2.51301
rfoot -11.9917 -35.3992
rtoes 8.20018
lfemur -32.3491 -57.4496 22.949
ltibia -3.56882
lfoot -45.532 61.4495
ltoes 25.7472
309
root -0.0790058 17.7815 8.33975 25.7073 6.15403 -7.97463
lowerback 10.5861 -1.22512 5.71509
upperback 0.894884 -0.55395 7.32239
thorax -5.00316 -0.319415 4.58839
lowerneck -11.1749 -3.93575 -0.238092
upperneck -1.18252 -5.38077 5.73495
head 1.71874 -2.54936 1.60374
rclavicle -6.36111e-015 1.35174e-014
rhumerus -0.178037 -17.8095 -36.9372
rradius 20.6663
rwrist 23.8593
rhand 25.9644 -27.2064
rfingers 7.12502
rthumb 50.0451 -48.4055
lclavicle -6.36111e-015 1.35174e-014
lhumerus 39.5223 -67.8395 65.3581
lradius 53.2482
lwrist 18.4893
lhand -22.5545 -14.1917
lfingers 7.12502
lthumb 3.87335 15.7529
rfemur -24.0963 25.2491 16.3668
rtibia 2.56003
rfoot -11.9882 -35.3577
rtoes 8.19869
lfemur -32.4336 -57.2559 22.2636
ltibia -3.44087
lfoot -45.924 61.0245
ltoes 26.326
310
root -0.0997893 17.7927 8.35646 26.1293 5.67384 -6.87049
lowerback 10.2632 -1.05651 4.50516
upperback 0.749739 -0.507896 7.02625
thorax -4.96675 -0.273721 4.93896
lowerneck -11.1649 -4.09739 -0.622711
upperneck -1.45995 -5.53805 5.84185
head 1.64842 -2.63101 1.69884
rclavicle 6.36111e-015 3.97569e-015
rhumerus -0.518912 -18.3323 -38.8058
rradius 20.5324
rwrist 24.1753
rhand 25.1902 -26.9869
rfingers 7.12502
rthumb 49.3358 -48.5515
lclavicle 6.36111e-015 3.97569e-015
lhumerus 36.8675 -68.5956 67.4186
lradius 51.9186
lwrist 18.1096
lhand -22.0359 -13.3084
lfingers 7.12502
lthumb 4.37406 16.6264
rfemur -24.5494 25.2521 14.7766
rtibia 2.56442
rfoot -12.0463 -35.5246
rtoes 8.46427
lfemur -32.7352 -57.0735 21.1218
ltibia -3.2926
lfoot -46.5093 60.4575
ltoes 27.2042
311
root -0.11841 17.7979 8.36687 26.3258 5.50748 -6.33978
lowerback 10.1181 -0.957359 3.94849
upperback 0.637932 -0.451301 6.88828
thorax -5.00194 -0.234698 5.09653
lowerneck -11.1502 -4.19434 -0.667508
upperneck -1.62297 -5.64896 5.64461
head 1.58929 -2.69499 1.63794
rclavicle -1.07344e-014 3.26007e-014
rhumerus -0.875869 -18.7847 -40.9786
rradius 20.4264
rwrist 24.2018
rhand 24.2085 -26.9201
rfingers 7.12502
rthumb 48.4335 -48.9281
lclavicle -1.07344e-014 3.26007e-014
lhumerus 33.7093 -69.3067 69.6662
lradius 50.8003
lwrist 18.0743
lhand -21.398 -12.0586
lfingers 7.12502
lthumb 4.99004 17.8627
rfemur -24.7575 25.3433 14.0242
rtibia 2.56214
rfoot -12.1862 -35.725
rtoes 8.80372
lfemur -33.0422 -56.9253 20.7111
ltibia -3.11586
lfoot -46.4465 60.295
ltoes 27.2251
312
root -0.133545 17.7966 8.37236 26.2716 5.66863 -6.42303
lowerback 10.124 -0.922252 4.02271
upperback 0.586809 -0.384914 6.99876
thorax -5.06357 -0.201969 5.16589
lowerneck -11.0681 -4.22437 -0.476599
upperneck -1.86585 -5.68769 5.06782
head 1.46585 -2.7351 1.41999
rclavicle -5.96354e-015 -1.34378e-013
rhumerus -1.13074 -19.1184 -43.3779
rradius 20.2796
rwrist 24.1089
rhand 23.1176 -26.8985
rfingers 7.12502
rthumb 47.4275 -49.3741
lclavicle -5.96354e-015 -1.34378e-013
lhumerus 29.7926 -69.7504 72.4951
lradius 50.114
lwrist 18.7463
lhand -19.8033 -9.86247
lfingers 7.12502
lthumb 6.52971 20.0169
rfemur -24.6566 25.4069 14.2289
rtibia 2.5337
rfoot -12.2873 -35.8406
rtoes 9.08215
lfemur -33.2293 -56.8415 20.9769
ltibia -2.95139
lfoot -45.8191 60.5056
ltoes 26.4321
313
root -0.144919 17.7871 8.37393 25.9681 6.06476 -6.9779
lowerback 10.3028 -1.00902 4.61983
upperback 0.503104 -0.393945 7.22677
thorax -5.25661 -0.217491 5.08366
lowerneck -10.797 -4.2202 -0.701124
upperneck -1.8118 -5.65002 4.85277
head 1.43461 -2.72272 1.39601
rclavicle 3.57812e-015 -3.02153e-014
rhumerus -1.41993 -19.1964 -46.1468
rradius 20.1445
rwrist 24.0474
rhand 21.9285 -26.8612
rfingers 7.12502
rthumb 46.3272 -49.8183
lclavicle 3.57812e-015 -3.02153e-014
lhumerus 24.6456 -69.8877 76.1338
lradius 49.8613
lwrist 19.8511
lhand -17.4711 -6.93782
lfingers 7.12502
lthumb 8.78076 22.8595
rfemur -24.2222 25.3351 15.2508
rtibia 2.48081
rfoot -12.2623 -35.7597
rtoes 9.01299
lfemur -33.078 -56.8798 21.5742
ltibia -2.90396
lfoot -44.8837 60.9299
ltoes 25.1338
314
root -0.15282 17.7718 8.37012 25.4152 6.65966 -7.93435
lowerback 10.672 -1.00425 5.93605
upperback 0.708865 -0.19285 7.52585
thorax -5.2638 -0.145421 4.63837
lowerneck -11.4501 -4.41316 -1.1456
upperneck -1.61621 -5.85816 4.70276
head 1.62964 -2.81735 1.40073
rclavicle -9.14409e-015 -9.93923e-014
rhumerus -1.49157 -18.7675 -48.782
rradius 19.78
rwrist 22.7706
rhand 20.8195 -27.0752
rfingers 7.12502
rthumb 45.2977 -50.4565
lclavicle -9.14409e-015 -9.93923e-014
lhumerus 21.7086 -70.4592 77.5378
lradius 49.5901
lwrist 20.2595
lhand -16.1917 -5.54676
lfingers 7.12502
lthumb 10.0152 24.1949
rfemur -23.5019 25.1374 16.9629
rtibia 2.44451
rfoot -12.1547 -35.5037
rtoes 8.64366
lfemur -32.7133 -57.0115 22.5131
ltibia -2.93354
lfoot -43.0974 61.7651
ltoes 22.8521
